<?xml version="1.0" encoding="utf-8"?>
<!-- Generator: Adobe Illustrator 25.2.1, SVG Export Plug-In . SVG Version: 6.00 Build 0)  -->
<svg version="1.1" xmlns="http://www.w3.org/2000/svg" xmlns:xlink="http://www.w3.org/1999/xlink" x="0px" y="0px"
	 viewBox="0 0 1000 1000" style="enable-background:new 0 0 1000 1000;" xml:space="preserve">
<g id="Слой_1">
	<g>
		<path d="M872.9,224.7H730l-53-108.3c-5.2-9.8-14.5-15.5-24.2-15.9c-1-0.1-2-0.2-3-0.2H357c-5.9,0-11.3,1.8-15.9,5
			c-4.6,2.7-8.6,6.8-11.4,12.1l-53.5,107.3H230v-30.9c0-17.4-18.3-31.5-50.7-31.5c-27.6,0-48.3,14.1-48.3,31.5v30.9h-4
			c-64.6,0-117,52.5-117,117.2v440.6c0,64.7,52.4,117.1,117.1,117.1H873c64.7,0,117.1-50.5,117.1-115.2V341.9
			C990,277.2,937.6,224.7,872.9,224.7z M500.5,813.7c-139.7,0-252.9-113.3-252.9-253s113.2-253,252.9-253s252.9,113.3,252.9,253
			S640.2,813.7,500.5,813.7z M841.5,437.6c-35.9,0-64.9-29.1-64.9-65c0-35.9,29.1-64.9,64.9-64.9c35.9,0,64.9,29,64.9,64.9
			C906.4,408.5,877.3,437.6,841.5,437.6z"/>
	</g>
</g>
<g id="Слой_2">
	<g>
		<g>
			<path d="M499.5,377C356.2,377,240,527.8,240,565.5S356.2,754,499.5,754S759,603.2,759,565.5S642.8,377,499.5,377z M657.4,649.7
				c-35.4,30.4-91.6,66.6-157.9,66.6s-122.4-36.2-157.9-66.6c-42-36-63.6-70.9-69.2-84.2c5.6-13.3,27.2-48.1,69.2-84.2
				c35.4-30.4,91.6-66.6,157.9-66.6s122.5,36.2,157.9,66.6c41.9,36,63.6,70.8,69.2,84.2C720.9,578.8,699.4,613.6,657.4,649.7z"/>
		</g>
	</g>
</g>
<g id="Слой_3">
	<g>
		<path d="M435.2,557.6l0.8,0.2c0.2,1.3,0.8,0.7,1.6,0.4C437.6,559.5,434.4,559.8,435.2,557.6z M457.7,576.8c-0.2,0.6-0.2,0.7-1,0.7
			l0.2-0.9L457.7,576.8z M448.4,566.7l-1.4,0.2C447.2,565.7,448.2,564.7,448.4,566.7z M446.8,566.9c-1,0-2.4,0.4-1.8-1.3
			C446.2,565.6,446.8,566.1,446.8,566.9z M444.8,560.4c-1.2,0-3.9-0.9-4.5-2c1.2,0,2.4,0.6,3.2-0.7c3,0.4,3.4,2.4,5.9,2.4
			c0.6,0.7,3.2,2.6,0.6,2.8C448,563,445.5,561.9,444.8,560.4z M455.7,565.9c-0.4,0.7-3.6,0.6-4.3-0.2c1.2,0,2.2,0.4,3.6,0
			c0-0.7-0.6-1.1-1-1.9c1.2,0,2.8,0.9,4.7,0.9c0-1.1-0.4,0.2,0-1.1c0.8,0.2,2.6,1.9,2.8,2.4C458.7,565.9,458.7,565.9,455.7,565.9z
			 M465.2,565.6c0.6,0,1.4,0.2,1.4,0.6C465.8,566.1,464.8,566.9,465.2,565.6z M526.1,480.6h-10.3c-3,0-5.3-2.2-5.3-4.8
			c0-2.8,2.2-4.8,5.3-4.8h10.3c2.8,0,5.3,2,5.3,4.8C531.3,478.4,528.9,480.6,526.1,480.6z M546.8,505.3c0,0.6-1.4,0.9-1.6,0.2
			c0.2,0,0.4,0,0.2-0.2H546.8z M547.3,490.4c2,0,0.4,1.3-0.2,1.3c0.4,0.2,0,1.3,0,1.7c1.8,0,1.8-1.1,3.2-1.5c-0.2,1.7-2,1.9-0.2,3.1
			c0.8,0.7,1.8,1.7,1.4,2.6c2.4,0,2.8,2.2,2.2,4.6c1.4,0,1.4,0.2,1.4-1.1c1.2,0.4,1.2,1.5,0,1.5c-1.2,2-4.5,2-6.5,2
			c-0.2-1.7-0.4-1.9-2.2-1.3c-2.2,0.6-0.4-1.7-0.4-2.9c0.2,0,5.3,0.4,2.2-0.6c0-2.6-0.8-3.3-3.2-3.3c0-1.7-0.6-1.5-0.8-3.3
			C543.7,490.4,546.6,493.3,547.3,490.4z M538.2,499.7c-2.6-0.6,2.4-1.3,2.6-1.9c-0.8,0-1.4-0.9-1-1.5c0.4-0.9,1,0.9,1.8,0.6
			c1-0.2,3-1.5,2,1.1c-1,2.8-2,4.8-5.9,4.8C536.6,501.6,537.8,501,538.2,499.7z M565,520.2c1.2,0.4,1.6,0.2,1.4-0.6
			c1.6,0.6-0.2,1.5-0.4,2.6C565.2,521.5,565.4,521.3,565,520.2z M566.2,523c1,0,1.4,4.2-1.4,3.3c0-0.9-0.8-2.9,0.6-2.9
			C566,525,566.2,524.5,566.2,523z M571.5,529.8c0.4-1.3,1.2-0.2,2,0c2,0.6,1.4,0,2.8-0.7C576.3,532.9,573.9,530,571.5,529.8z
			 M625.6,581.4c0.4,0,2.8-0.2,2.8-0.6c2.2,0,5.1-0.2,7.3-0.9c0,2.9-2.8,4.8-2.2,7.7c-1.8,0-1,1.7-1,2.2c-1.2,0.7-1.4,1.9-2.8,2.6
			c0,1.3-3.2,3.5-4.3,4.6c-1,1.3-4.3,3.5-4.7,5.2c0-0.4-6.1,5.9-4.7,5.9c0,1.1-1.6,10.3,0.6,10.3c0,0.7,1.8,8.5,0.8,8.5
			c0,2.4-1.8,4.1-1.8,5.9c-0.8,0.6-2,0.9-2.4,1.7c-1.6,0-2.4,2.9-3,2.9c0,3.3-1,5.7-1,9.2c0.2,0-2,5.2-2,5.5
			c-1.8,1.1-6.5,5.4-6.5,7.4l-3.9,4.8c-1,0-8.5,1.3-8.5,1.9c-1.6,0-5.7,1.3-6.7-0.2c0-1.5-1-3.3-1-5.4c-0.8,0-1-2.9-1.8-2.9
			c0-0.6-4.9-9.4-4.1-9.4c0-0.9-0.8-3.9-1-3.9c0-3.3-2.4-5.9-2.4-8.9c-0.8,0-2.2-6.4-1.6-6.4c0-3.3,1.4-5.5,1.8-9.2
			c0.6-4.2-0.2-6.6-1-9.6c-0.4,0-1.8-2.2-2-2.8c-2-1.3-2.6-3.7-2.6-5.9c1.2-1.5,1.8-6.6,1.4-8.3c-2.4-1.1-3.4-0.7-6.3-0.7
			c-1.6-2.9-12.4-1.1-15.6-1.1c0,1.7-7.5-0.4-8.1-1.7c-2,0-5.7-3.7-5.7-5.4c-2-1.1-5.3-7.4-5.3-9.4c-1.6-0.7-1.2-3.9-0.2-3.9
			c0.2-0.9-0.6-3.7-1-5c-0.2-0.9,1-2,1-3.1c0-3.1,0.2-4.6,2-8.1c0.6-1.1,1.4-2,2-3.3c1-2.6,1.4-0.2,2.8-2.4c1.2-0.6,2-2.6,3.4-3.7
			c0.6-0.7,0.6-0.9,0-1.5c0.2,0,1.8-3.7,1.8-4.4c1.8-2.6,0.4-1.5,2.4-1.1c0.6-0.7,1.8-2.6,3-2.6c0.4-0.9,1.6-1.5,2.6-1.5
			c0,1.5,4.3-0.4,4.7-0.4c0.6-1.3,5.1-2.8,6.3-2.8c0-1.7,8.7,0.4,10.2,0.2v-0.7c2,0.6,5.5,7.6,5.1,9c1.4,0,2.8-0.2,3.9,0
			c0,1.5,3,1.8,4.5,2c1.8,0,7.5-0.2,7.5-2.8c1.4,0,2.8,1.1,2.4,2.6c1.8,0.2,11.8,0.4,11.1,2.4c1.4,0,1.8,2.2,3.2,2.2
			c-0.4,1.7,1.8,5.7,3.2,5.7c0,1.5,1,4.1,2.2,4.8c0.8,2,3,6.3,5.3,7.4c-1,1.7,1.4,3.1,2,4.6c-0.2,0,0.6,2.4,1.2,2.8
			c0,1.7,3.9,8.3,5.9,8.3C625,580.9,623,581.2,625.6,581.4z M640.8,518.9h-5.5l-0.2-0.2c-0.2,0-1.4-2.4-1-2.9h1l-1.4-3.1
			c-1.2,0.7-2.2,1.7-3.9,1.9c0,0.4-2.2,4.2,0,4.2l0.2,0.2c-2.6,0.4-4.9,2.2-4.9,4.8s2.4,4.8,5.3,4.8h2c0.2,0.9,0.6,1.7,2.4,2
			c0.6,2.2,4.9,2.9,5.5,0.7c-1.8,0-1.2-1.7-1-2.8h1.4c3,0,5.3-2.2,5.3-4.8S643.9,518.9,640.8,518.9z M619.8,571.5
			c0.2-0.7-0.6-1.3-1-2c1.4,0-4.7-10.1-4.7-11.8c-0.8-0.4-2-3.3-2.2-4.2c-1.2-0.9-2.4-3.3-3-4.6c-1.2-0.9-4.3-4.2-4.7-5.9
			c1.8,0.2,4.5,0.6,4.5-1.5c-1.2,0-1.4-1.5-0.2-1.5c-0.4-1.5,0.8-2.4,1-3.5c0.4-1.3,1-3.3,1-5c-1.8,0-2.2,0.2-3.4,0.7
			c0,0.9-3.2-0.4-3.6-0.4c-0.6-1.1-5.3,1.7-6.7-0.9c-2.2-1.7-1.6-3.1-2.2-5.7c-0.4-1.3-2.2-1.3-3.4-1.5c-3.2-0.6-1,3.5-1.2,4.4
			c2,0-1.2,2.4-1.2,3.5c-3.2-0.6-2.2-4.1-4.3-5c-0.6-0.9,0-1.7-1.4-1.7c0-1.3,0.6-3.5-0.8-3.9c0-0.6-2.8-0.9-3.2-1.7
			c-1.8,0-5.9-6.3-7.3-4.1c-0.8,1.3,0.8,1.7,1,2.8c2.6-0.6,2.4,3.9,5.5,3.3l0.4,1.9c2.2-0.4,2,1.7,3.2,1.7c-1,1.1-3.6-1.7-2.8,0.6
			c0.4,1.5,0.2,2.6-1.8,3.9c0-1.5,0-5.4-1.6-5.4c-1.2-2-4.5-1.5-5.9-3.5c-1,0-1.6-3.1-3.4-3.3c-0.4,0.4-1.8,0.9-2.2,0.9
			c-1,1.9-7.1,0.2-7.1,0.4c0,0-3.2,7.4-3.4,8.3c-0.4,2-2.2,2-2.8,4.1c-0.2,0.9-6.7,0.6-6.7,1.3c-2.8-0.9-5.3-2.8-5.3-5.5
			c-0.2,0,0.4-7.2,1-8.3c0.6,0.2,0.6,0.4,1,0.9c1.6-0.6,5.7,0.4,5.7-1.5c1.6,0.2,2.2,0.7,1.6,1.9c1.4,0.4,4.3,0.7,4.3-1.3
			c-1,0-1-0.2-1-0.9c2.8-2.9-2.2-5.5-2.2-7c-1.2-0.2-3.2-2.4-1.8-1.7c1.4,0.7,6.1,2,4.3-0.7l0.2-0.4c0.6,0.4,2.8,2.6,2.8,0.6
			c0.6,0,3-1.5,1-1.5l0.2-2.4c3.2,1.5,1.4-1.1,3-2.2c0,2,1.6-0.9,2.6-0.9c1.2-1.7,4.1-0.4,4.9-2.2c-1.6-0.6-1.2-4.1-1.2-5.4
			c1.8,0.4,3.9-2.2,4.1-0.6c0.2,0.7,0.2,2.6,0.6,2.9c2.8,1.3,2-0.7,2-2c-0.8,0-2-3.1-2.2-4.4c-0.8,0-2,0.4-2.2,0.9
			c-2.8,0-4.7-0.9-6.9-0.9c0-0.4-2.6-2.9-2.4-2.9c-1.4-2.6,1.6-1.9,2-1.9c0-2.4,10.3-2,10.7-5.5c-3.4,0,3.4-5.4,3.4-5.4
			c2.4-1.9,3.6-3.3,6.5-3.5c1.2-0.2,14.6-3.5,14.6-2l4.3,0.2c-26.1-22.2-61-36-99.5-36c-37.1,0-71,12.9-96.7,33.9
			c0.2,0.6,0.4,0.9,0.4,1.3c1.4,0,3.2-0.9,3.6,0.7l-1.8-0.2c0.4,3.5-1.8,1.3-3.6,1.3l-1.6-0.6l-1.6,1.5v0.2c0.6,0,0.4,0.9,2,1.5
			c1.8,0.6,4.1,0.9,6.1,1.1c1.6,0.4,2.6-0.2,4.1-0.2c0-0.2,3.4-1.7,1-1.7c0.2-1.3-0.4-1.5-1.8-1.5c0.2-1.5,3.6-0.6,5.1-0.6
			c1-1.7,0-1.5,1-2.9c1-1.9,2.4-0.4,3.2-2c1,0.4,2,0.9,2.4,2.2c0.8,0.7,5.5,7,5.5,2.6c1.6,0.4,2.4,3.3,2.6,4.8
			c2.8-0.4,3.2-2.4,3.2-4.6c0.6,0-0.4-1.1-0.4-1.5c1.2-0.4,2.6,1.1,2.6-0.4c0.4,0,0.4,0.4,0.4,0.9c1.6,0.4,2.6-0.2,3.6,0.2
			c0.6,0.2,0.2,3.3,0,4.4c-0.4,1.5-3.2,1.5-3.2,2c-3.4,2.2,3.9,3.5,4.9,4.8c-0.6,0-3.2-0.2-3.2-0.4c-1.6,0-5.5,1.7-6.9,0.4
			c2,0,2.6-2.2,2.8-4.2c-1.8-0.7-4.1,0.4-4.5,2c-1,2.8-3,0-4.1,1.9c-0.4,0.2-3.9,1.7-3.9,1.1c-4.3,0.6-3,3.7-3,7.2
			c1.6,0.9,4.9,3.3,4.7,4.8c3.6,0.6,5.1,0.9,8.3,1.5c0.2,0.4,1.4,0.9,2,1.1c0,1.9,2,1.7,3.6,1.7c0-2.6,3.2,2,3.6,2.9
			c-0.4,0,0.8,2.6,1,3.3c-0.6,0-0.6,0-0.6,0.6c1.6,0.6,4.3,0.4,4.7-1.1c-1.6,0-1-1.7-1-2.6c-1.6-0.9-1.4-2.8,0.2-3.1
			c0,1.3,5.1-0.9,2.2-1.9c0.8-1.5,1.2-3.9,0-5.2c-0.6-0.7-1.6,0-2-1.1c2-0.6,0.6-3.9,0.6-5.5c0.6-0.2,2.2,0.4,2.2,0
			c1.8,0,5.1,2.2,6.3-0.6c3.2,1.5,0.6,2.8,3.9,1.7c0,0.7,3.9,4.2,4.3,4.2c0,0,0,1.1,0.8,1.1c0,0.7-0.4-0.6-0.4,0.9
			c0.4,0,3,0.4,3-0.6c1.6,0,2.6-1.9,2.6-3.1c1-0.6,2.8,5,4.1,5c0.8,1.3,3.9,3.1,3.9,4.4c0.6,0.6,1.2,0.4,1.2,2
			c0.6,0,2.2-2.8,2.2-0.2c0.6,0,2.6,1.5,3,2.6c-1.8,0-0.2,1.5-1,1.5c0,1.7-3.9,0.4-4.9,0.4c-1.2,5-8.3,1.3-12.8,2.6
			c-2.2,0.7-6.7,5.4-7.1,7.7c2.8,0,4.1-2.2,6.7-2.9c2,0,2.4-1.3,4.3-1.7c0,0.4,0.4,0.2,0.4,0.7c-3.4,0-1.4,2-0.4,3.7
			c0.8,0.9,1.4,1.3,2.2,1.7l-0.8,1.7c-0.6,0.2-2,0.7-2.2,1.3c-4.1,0.4-2,0-1.8-0.7c0.2,0.2,1.6,0,1.6,0c-0.2-1.1-0.6-0.9-0.2-1.7
			c-2.2,0-3.4,0.9-5.1,0.9c-0.4,0.6-1.8,1.9-2.6,1.9c-0.4,1.5-1.6,4.1-2.8,4.8c0-0.4-3.6,2.2-3.4,2.2c-0.6,1.1-1.6,1.1-1.8,2.9
			c-0.4,0-1.4,3.1-1.4,3.7c-1.4,0.9-2,4.8-4.7,4.8c-1.6,2.9-4.5,2.6-4.5,6.4c0.8,0.9,1.2,5,1.6,6.3c0.4,1.7,1,3.3-1.4,3.3
			c-0.2-0.2-1.8-2.4-1.6-2.4c0-1.1-1.2-4.1-2-5c-0.8-1.3-2.6,0.2-4.3-0.4c-0.6-1.1-4.7-1.5-6.1-1.5c0.2,0.9,0.8,1.1,0.8,2.2
			c-1.2,0.4-1.8,0.9-3,0.7c-2.2-0.4-2-1.8-4.5-1.7c-3.9,0.4-6.5,3.3-6.5,6.8c-0.4,0-0.4,6.8,0,6.8c0,2,1.8,3.5,1.8,5
			c1.6,0,3.6,3.3,5.3,3.3c0.2,1.3-0.8,1.5,2,1.5c0-0.2,1.4-0.9,1.6-1.9c-1.8-0.6,0-2.8,1.4-3.3c0,1.7,2.4-0.6,2.4-0.6l2.8-0.9
			c0-1.9,1.8,0.2,0.4,0.9c-1.4,0-1.2,2-2,2c-0.2,1.5-1,2.8-1.2,4.2c-0.6,1.7,1,1.9,0.4,3.5c2,0.4,4.1,0,6.1,0c0-0.2,0-0.6-0.2-0.9
			c2.8,0,0.2,5.2,2,5.2c0,1.9,1,3.3,1,4.6c1.2,0.7,2,1.9,1.6,3.5c1.8,0.2,5.3,0.6,5.3-1.5c2.6,0,2.8,1.7,2.6,3.1
			c5.1,0,1.8-4.4,4.1-4.4c0.2-0.9,0.4-0.9,1-0.6c1,0.6,1.8-0.9,2.6-1.3l1.2-0.7c0.8,0.4,0.8,0.4,1.2,0.7c1.2,0,2.6-0.7,3.9-1.5
			c1.8,0.2,1.2,3.7,4.7,4.1c1.4,0,4.5,0.4,5.7-0.4c0.2-0.2,1.4,0.6,1.4,0.9c1.2,0,1,0.9,1.6,0.9c0,0.2,0.2,0.4,0.4,0.2
			c0.2,0.4,1,0.6,1.6,1.7c0,0.9,2.2,1.1,2.2,1.9c1.6,0.7-0.6,0.9,1.8,1.7c1.4,0.4,2.6,0.9,4.1,1.1c0.6-1.7,2,0.2,2.8,0.2
			c0.4,0.7,0.6,0.2,1,0.9c2.2,1.9,0.8,1.1,1.8,2.9c1,0.7,1.4,3.1,1.6,4.4c-0.8,0-0.2,3.1-0.2,3.5c-1,0,2.8,1.8,2.8-0.6
			c1.4,0.4,2.6,1.9,3.6,1.9c-0.6,1.5,1.8,2.6,1.8,0.4c2.4,0.2,1.6,3.5,1.4,4.6c1.8,0,2.2-0.9,3.9-1.1c1.6-0.9,3.4-1.7,5.5-1.7
			c5.7,0,10.3,4.2,10.3,9.6c0,4.8-3.9,8.5-8.7,9.2l-1.4,1.3c0,0.6,0,5.2-0.2,5.2c0,0.9-0.8,5.9-1.4,5.9c0,2.6-2,3.1-2.6,5.5
			c-1.4,1.1-5.7,2.8-6.3,3.9c-1.2,0-2,0.9-3.2,0.9c-0.2,0.4-2.6,2.6-2.2,2.6c-0.2,1.7,0.2,5.5-0.8,6.6c-0.6,0.7-1.6,0.6-1.2,1.7
			c-1.4,0,0.2,0.9-2,0.9c-1.4,0-4.1,1.8-4.1,3.5c0,1.9-0.6,3.1-2.4,4.4c0,0.6-3.2,0.7-3.2,2.4c0.4,0,0,3.1,0,3.5
			c-1,0-3.4,0.9-3.9,1.7c-3.2,0-2.8,0.2-4.9,1.5c0,0.6-0.4,1.8-0.8,1.8c0,2.4-1.8,0.4-3.2,1.5c0.6,0,1.2,2.2,1,2.2
			c0,2-1.4,2.2-2.8,3.7c-0.6,0.6-1.2,2.2-1.6,2.2c0,1.3-0.8,2.6-0.8,3.9c0.2,0,0,0.6,0.2,1.1c0.8-0.2,0.8-0.9,1-0.9
			c0-1.1,2,0.7,0.8,0.7c-1,1.5-2.2,1.5-2.8,3.5c-0.6,0-1.2,0.6-1.6,1.1c12.4,3.1,25.2,5,38.5,5c51.5,0,96.5-24.5,122.7-61.4
			c0.2-3.5,0.6-6.6,1-7.7c1.2,0.6,1.8,1.9,2.6,0c-1.8-0.4-1.4-0.9-0.8-2.4c0.8,0.4,2,0.9,3.2,0.7l1-1.9c-1-0.6,0.4-2.6,0.8-1.7
			l0.8-1.3H631c0-0.9,0.2-0.7,0.8-1.3v0.2c9.1-17.5,14.4-37.1,14.4-57.9v-1.9c-0.4,0.9-0.8,1.9-1.6,2c0,0.7-7.5,3.7-6.9,5
			c-1.4,0-6.1,1.1-6.9,2.8c-0.8,0-4.7,1.1-5.1,1.8C621,576.6,622,571.5,619.8,571.5z M619.1,522.4c0.2-4.1-3.6-3.3-5.1-5.7
			c-1.2,0-1.6-0.9-3.4-0.9c-1-0.4-2,0-2.6,0.7c-2.6,0.9-1-1.1-3-1.1c0-2.4-1-3.1-3.9-2.8c-1.6,3.3-4.1,5.4-3.6,9.2
			c1,0.2,0.8,0.4,0.6,1.5c1.6,0.2,11.3-0.4,11.3-1.3c0.4,0,2,3.1,2,0.4c1.4,0,2,2.9,5.3,2.2C616.7,525.2,622,522.4,619.1,522.4z
			 M610,478.7c0.4,0.7,0.8,1.3,0.6,1.7c0.4,0,0.6-0.2,0.8-0.2L610,478.7z M607,475.6v0.2l0.4,0.2L607,475.6z M395.5,552.7
			c0-1.5-3.4-3.9-4.5-3.9c0-0.4-1.4-3.3-2-3.3c0-0.9-3.9-5.5-4.5-3.5c-0.4,1.3,3,2.9,3,4.4c0.6,0,3.2,4.6,3.6,5.4
			c5.7,8.9-4.3,2.8-4.3-0.9c-1.2-0.6-3.2-5-3.2-6.3c-0.6-0.6-2.8-4.8-2.6-4.8c0-2.8-1.8-4.2-5.1-4.2l-3-3.9c0-1.1-2.2-4.6-3.4-5.4
			c0-2.2-1.4-5.2-0.8-7.7c0-2.6-0.2-5.5-1-8.3c-8.7,17.4-13.8,36.5-13.8,56.6c0,58.1,39.9,107.5,95.9,126.3
			c0.2-4.8,0.4-10.5,1.6-10.5c0-0.7,0.8-3.7,1.2-3.7c0-1.9,0.4-4.1,0-6.3c-0.6-1.3,1-3.1,1.6-5.2c2.8-1.5,0.8-14.7,3-14.7
			c0-6.8,1.6-10.7,0.4-16.8c0.6,0-3.2-3.9-3.2-3.7c-3.6,0-6.3-5.5-6.3-7.9c-0.4-1.1-1.2-2.6-1.2-3.9c0.8,0-5.3-8.3-5.3-8.1
			c-3.2-1.7,0.2-3.9,0.6-6.6c-2.8-0.9,0-7.7,1.2-7.7c0-0.9,0.6-1.5,1.4-1.9c0.6,2.2,3.6-1.3,1.2-1.3c0-1.5-0.2-4.6,0-5.5
			c0-2.2-2.2-6.8-3.9-2c-2-0.7-6.7-0.7-7.1-3.3c0.2-1.5-2.6-4.2-3.9-4.6c1-2.4-5.1-5.5-7.3-5.5c0-0.6-1-0.4-1.4-0.9
			c-2.2,0-2.8-2.8-5.3-2.8c-2.8,0-5.9-1.9-8.5-1.9c-1-1.7-5.1-1.1-6.1-2.8c-2.2,0-3-3.9-3-5.4C399.7,558.5,398.1,552.7,395.5,552.7z
			 M635.4,554.1c0.2-0.2,0.4-0.4,0.6-0.7c0.2,1.1,0.6,2,1.4,2.8l0.2,0.2l0.2-0.2c0.8,0.7,1.8,1.1,3,1.1c2,0,3.4-0.9,4.5-2.2l0.2,0.2
			v-0.4c0.4-0.7,0.6-1.5,0.6-2.4c0-2.6-2.2-4.8-5.3-4.8c-1.8,0-3.2,0.9-4.3,2.2l0,0c0-0.4-0.4-1.3-0.8-2.4v5
			C635.8,553,635.6,553.6,635.4,554.1z M499.9,720.6c-92.1,0-166.9-68.8-166.9-153.7c0-84.8,74.8-153.6,166.9-153.6
			c92.3,0,167.1,68.8,167.1,153.6C667,651.8,592.2,720.6,499.9,720.6z"/>
	</g>
</g>
</svg>
