<?xml version="1.0" standalone="no"?>
<!DOCTYPE svg PUBLIC "-//W3C//DTD SVG 20010904//EN"
 "http://www.w3.org/TR/2001/REC-SVG-20010904/DTD/svg10.dtd">
<svg version="1.0" xmlns="http://www.w3.org/2000/svg"
 width="271.000000pt" height="247.000000pt" viewBox="0 0 271.000000 247.000000"
 preserveAspectRatio="xMidYMid meet">

<g transform="translate(0.000000,247.000000) scale(0.100000,-0.100000)"
fill="#000000" stroke="none">
<path d="M1420 2060 c0 -13 5 -20 13 -17 6 2 12 10 12 17 0 7 -6 15 -12 18 -8
2 -13 -5 -13 -18z"/>
<path d="M1673 2062 c23 -26 24 -164 1 -186 -14 -15 -12 -16 27 -16 38 0 41 2
25 13 -19 14 -19 48 0 54 6 2 21 -12 32 -32 14 -22 29 -35 42 -35 20 0 19 2
-9 37 -38 46 -39 65 -5 92 l27 21 -31 0 c-22 0 -30 -4 -26 -13 2 -7 -7 -24
-21 -37 l-25 -23 0 71 c0 71 0 72 -27 72 -25 0 -25 -1 -10 -18z"/>
<path d="M924 2060 c-48 -19 -34 -79 26 -110 41 -21 51 -45 28 -68 -20 -20
-47 -13 -62 16 -12 23 -15 25 -21 9 -18 -44 74 -67 110 -27 27 29 13 64 -38
92 -32 18 -42 29 -42 48 0 19 6 26 24 28 15 2 28 -3 33 -12 11 -20 28 -21 28
-1 0 15 -30 35 -52 34 -7 0 -23 -4 -34 -9z"/>
<path d="M1126 2013 c-4 -4 -23 -6 -44 -6 -20 1 -31 0 -24 -3 16 -7 16 -116 0
-132 -9 -9 -2 -12 32 -12 38 0 42 2 26 13 -24 18 -19 105 7 121 28 17 47 -17
47 -81 0 -50 1 -53 26 -53 23 0 24 1 10 16 -11 10 -16 34 -16 69 0 43 -4 56
-19 65 -23 12 -35 13 -45 3z"/>
<path d="M1271 2001 c-28 -28 -29 -101 -2 -125 21 -19 82 -19 88 0 2 6 -10 8
-32 6 -29 -4 -36 0 -44 19 -8 23 -6 24 38 29 36 4 47 9 49 25 7 49 -61 82 -97
46z m64 -22 c9 -27 3 -31 -33 -27 -26 3 -28 6 -21 26 11 28 45 29 54 1z"/>
<path d="M1526 1996 c-50 -49 -25 -136 39 -136 45 0 65 22 65 74 0 49 -15 72
-52 81 -21 5 -33 1 -52 -19z m75 -23 c23 -60 -17 -125 -56 -93 -18 15 -20 91
-3 108 21 21 48 14 59 -15z"/>
<path d="M1408 2003 c19 -8 17 -182 -3 -189 -19 -8 -20 -24 -1 -24 32 0 46 42
46 132 l0 88 -27 -1 c-16 0 -22 -3 -15 -6z"/>
<path d="M1350 1724 c58 -10 69 -15 73 -32 3 -11 5 -9 6 8 1 23 -2 25 -52 26
-28 1 -41 0 -27 -2z"/>
<path d="M1160 1695 c15 -38 13 -142 -2 -148 -10 -4 -10 -6 -1 -6 17 -1 50 36
57 65 8 31 -16 89 -43 103 -19 11 -20 10 -11 -14z"/>
<path d="M1293 1696 c-33 -41 -30 -90 6 -127 22 -21 38 -29 63 -28 l33 2 -35
6 -35 6 -5 85 -5 85 -22 -29z"/>
<path d="M1530 1673 c-1 -27 -5 -67 -9 -90 -8 -43 -8 -43 21 -43 16 0 27 4 24
9 -3 5 -3 23 0 40 5 22 12 31 27 31 17 0 19 -5 14 -39 -4 -34 -2 -40 17 -45
11 -3 24 -6 27 -6 7 0 -5 72 -15 88 -3 6 -2 13 4 17 14 9 13 58 -2 73 -7 7
-34 12 -60 12 l-48 0 0 -47z m80 -3 c0 -33 -3 -40 -20 -40 -17 0 -20 7 -20 40
0 33 3 40 20 40 17 0 20 -7 20 -40z"/>
<path d="M865 1700 c-29 -5 -33 -8 -14 -9 26 -1 27 -4 34 -76 3 -41 4 -79 0
-85 -4 -6 6 -10 25 -10 25 0 30 4 26 18 -2 9 -8 50 -11 90 -7 68 -6 72 13 72
11 0 23 -6 25 -12 3 -8 6 -6 6 5 1 19 -28 21 -104 7z"/>
<path d="M1050 1690 c-28 -28 -27 -98 0 -128 12 -12 23 -22 25 -22 5 0 2 170
-2 170 -2 0 -12 -9 -23 -20z"/>
<path d="M1784 1690 c-1 -8 -4 -24 -8 -35 -5 -14 -3 -13 7 4 17 28 22 21 32
-36 7 -42 6 -43 -22 -44 l-28 -1 30 -7 c21 -4 30 -12 30 -26 0 -11 7 -23 15
-27 21 -9 58 -10 44 0 -6 4 -14 25 -18 47 -23 125 -26 133 -54 137 -20 3 -28
-1 -28 -12z"/>
<path d="M1975 1679 c9 -13 -17 -164 -29 -171 -6 -4 4 -8 22 -8 29 0 32 3 32
30 0 19 6 33 16 37 11 4 12 8 4 13 -16 10 -3 90 14 90 21 0 23 -8 16 -55 -5
-31 -3 -45 5 -45 34 0 48 67 19 90 -16 14 -106 31 -99 19z"/>
<path d="M691 1673 l37 -4 11 -76 c9 -61 9 -78 -1 -85 -8 -4 -9 -8 -2 -8 25 0
49 42 49 87 0 58 -37 94 -93 91 l-37 -1 36 -4z"/>
<path d="M620 1648 c-51 -55 -2 -160 72 -156 l33 1 -32 4 c-38 5 -44 20 -47
113 0 33 -2 60 -3 60 -1 0 -11 -10 -23 -22z"/>
<path d="M471 1643 c-16 -3 -20 -7 -12 -12 6 -4 13 -23 15 -43 2 -19 6 -40 9
-45 4 -6 8 -27 9 -47 2 -20 5 -36 8 -36 3 0 15 3 27 6 17 5 20 10 14 23 -13
25 -33 140 -26 151 6 10 -2 11 -44 3z"/>
<path d="M2161 1573 c-7 -43 -18 -84 -23 -90 -8 -10 -5 -13 10 -13 11 0 27 -3
35 -6 12 -4 14 0 10 15 -9 34 5 69 30 74 l22 4 -23 2 c-23 1 -23 7 -5 74 3 13
-2 17 -19 17 -22 0 -25 -6 -37 -77z"/>
<path d="M373 1623 c-18 -3 -21 -8 -14 -21 5 -9 14 -50 21 -89 8 -45 18 -73
26 -73 22 0 46 13 36 19 -6 3 -13 23 -17 43 -6 33 -5 37 17 41 21 4 20 4 -4 6
-28 1 -33 13 -31 69 1 6 -2 11 -6 11 -3 -1 -16 -4 -28 -6z"/>
<path d="M1398 1590 c6 -56 33 -49 44 13 5 24 2 27 -21 27 -25 0 -26 -2 -23
-40z"/>
<path d="M1746 1594 c-9 -20 -15 -38 -13 -41 3 -2 12 13 22 32 9 20 15 38 13
41 -3 2 -12 -13 -22 -32z"/>
<path d="M2274 1590 c-4 -22 -10 -40 -15 -40 -5 0 -6 -6 -3 -14 3 -8 1 -30 -4
-49 -9 -34 -9 -35 18 -39 18 -3 26 0 24 7 -3 6 2 44 11 84 19 91 19 91 -5 91
-15 0 -21 -9 -26 -40z"/>
<path d="M2421 1547 c18 -59 17 -99 -4 -124 -7 -9 -5 -13 6 -13 8 0 23 -3 32
-6 9 -4 15 -3 13 2 -7 28 17 84 53 122 27 28 35 42 25 42 -9 0 -16 -6 -16 -13
0 -13 -40 -57 -52 -57 -6 0 -23 69 -20 82 1 3 -11 11 -27 16 l-29 10 19 -61z"/>
<path d="M231 1583 c10 -2 22 -23 28 -49 10 -39 14 -44 26 -34 33 27 2 91 -43
89 -15 -1 -20 -3 -11 -6z"/>
<path d="M172 1573 c-8 -3 -10 -9 -4 -16 12 -16 44 -146 38 -156 -3 -5 6 -6
20 -3 23 4 25 8 19 40 -4 24 -2 38 7 43 10 7 9 9 -3 9 -11 0 -20 15 -28 45
-11 43 -20 50 -49 38z"/>
<path d="M1116 1336 l-29 -54 -115 -4 -114 -3 -29 -33 -29 -32 0 -258 c1 -332
-6 -322 206 -322 115 0 134 -3 193 -26 93 -38 214 -38 296 0 53 24 68 26 196
26 l139 0 32 29 33 29 3 240 c3 297 1 304 -83 347 -33 17 -61 39 -63 48 -3 14
-17 17 -91 17 -84 0 -88 1 -99 25 l-12 25 -202 0 -203 0 -29 -54z m434 19 c13
-24 18 -25 98 -25 72 0 85 -2 89 -18 4 -17 14 -24 82 -56 61 -29 60 -27 61
-303 l0 -252 -24 -28 c-24 -28 -25 -28 -168 -31 -123 -3 -152 -7 -205 -28 -82
-32 -181 -33 -255 -2 -44 18 -80 23 -205 27 -150 6 -153 6 -180 34 l-28 27 0
255 c0 317 -10 298 162 305 l117 5 33 58 34 57 188 0 188 0 13 -25z"/>
<path d="M1145 1280 l-36 -60 -119 0 c-108 0 -120 -2 -130 -19 -6 -12 -10
-112 -10 -255 0 -288 -15 -266 178 -266 118 0 137 -2 175 -22 35 -19 58 -23
142 -23 84 0 107 4 146 23 40 19 61 22 178 22 73 0 141 5 152 10 18 10 19 24
19 258 0 261 -2 272 -46 272 -12 0 -25 7 -28 16 -4 12 -15 15 -36 12 -26 -4
-30 -1 -30 19 0 22 -3 23 -70 23 -49 0 -70 -4 -70 -12 0 -7 -10 4 -22 25 l-22
37 -167 0 -168 0 -36 -60z m390 -3 c25 -43 30 -48 33 -29 3 20 9 22 58 22 51
0 54 -2 54 -24 0 -31 20 -44 32 -22 11 20 37 21 44 1 4 -8 16 -15 29 -15 43 0
46 -14 43 -266 l-3 -239 -150 -5 c-135 -5 -155 -8 -195 -30 -38 -21 -59 -25
-130 -25 -72 0 -93 4 -141 28 -53 25 -64 27 -190 27 -92 0 -139 4 -147 12 -16
16 -17 450 -2 479 10 17 22 19 130 19 l119 0 36 60 36 60 157 0 157 0 30 -53z"/>
<path d="M1274 1209 c-59 -17 -126 -71 -158 -129 -26 -47 -31 -65 -31 -125 0
-59 5 -79 30 -124 54 -98 146 -148 255 -138 147 13 249 134 238 282 -14 167
-175 280 -334 234z m160 -25 c196 -67 212 -354 24 -448 -244 -122 -476 188
-290 388 64 68 171 92 266 60z"/>
<path d="M1318 1163 c7 -3 16 -2 19 1 4 3 -2 6 -13 5 -11 0 -14 -3 -6 -6z"/>
<path d="M1378 1163 c7 -3 16 -2 19 1 4 3 -2 6 -13 5 -11 0 -14 -3 -6 -6z"/>
<path d="M1250 1150 c0 -5 4 -10 9 -10 6 0 13 5 16 10 3 6 -1 10 -9 10 -9 0
-16 -4 -16 -10z"/>
<path d="M1430 1150 c0 -6 7 -10 15 -10 8 0 15 2 15 4 0 2 -7 6 -15 10 -8 3
-15 1 -15 -4z"/>
<path d="M1200 1120 c0 -5 4 -10 9 -10 6 0 13 5 16 10 3 6 -1 10 -9 10 -9 0
-16 -4 -16 -10z"/>
<path d="M1485 1110 c3 -5 11 -10 16 -10 6 0 7 5 4 10 -3 6 -11 10 -16 10 -6
0 -7 -4 -4 -10z"/>
<path d="M1167 1083 c-4 -3 -7 -11 -7 -17 0 -6 5 -5 12 2 6 6 9 14 7 17 -3 3
-9 2 -12 -2z"/>
<path d="M1520 1071 c0 -5 5 -13 10 -16 6 -3 10 -2 10 4 0 5 -4 13 -10 16 -5
3 -10 2 -10 -4z"/>
<path d="M1136 1025 c-3 -8 -1 -15 4 -15 6 0 10 7 10 15 0 8 -2 15 -4 15 -2 0
-6 -7 -10 -15z"/>
<path d="M1300 1000 c-41 -41 -13 -110 44 -110 58 0 85 58 50 108 -19 28 -67
29 -94 2z m90 -15 c16 -19 5 -62 -19 -75 -26 -13 -71 4 -72 27 -2 30 2 48 14
55 20 13 64 9 77 -7z"/>
<path d="M1551 1004 c0 -11 3 -14 6 -6 3 7 2 16 -1 19 -3 4 -6 -2 -5 -13z"/>
<path d="M1126 971 c-4 -7 -5 -15 -2 -18 9 -9 19 4 14 18 -4 11 -6 11 -12 0z"/>
<path d="M1550 945 c0 -8 5 -15 10 -15 6 0 10 7 10 15 0 8 -4 15 -10 15 -5 0
-10 -7 -10 -15z"/>
<path d="M1130 906 c0 -9 5 -16 10 -16 6 0 10 4 10 9 0 6 -4 13 -10 16 -5 3
-10 -1 -10 -9z"/>
<path d="M1547 893 c-4 -3 -7 -11 -7 -17 0 -6 5 -5 12 2 6 6 9 14 7 17 -3 3
-9 2 -12 -2z"/>
<path d="M1150 851 c0 -6 5 -13 10 -16 6 -3 10 1 10 9 0 9 -4 16 -10 16 -5 0
-10 -4 -10 -9z"/>
<path d="M1515 830 c-3 -5 -1 -10 4 -10 6 0 11 5 11 10 0 6 -2 10 -4 10 -3 0
-8 -4 -11 -10z"/>
<path d="M1190 800 c0 -5 5 -10 11 -10 5 0 7 5 4 10 -3 6 -8 10 -11 10 -2 0
-4 -4 -4 -10z"/>
<path d="M1477 793 c-4 -3 -7 -11 -7 -17 0 -6 5 -5 12 2 6 6 9 14 7 17 -3 3
-9 2 -12 -2z"/>
<path d="M1245 760 c3 -5 11 -10 16 -10 6 0 7 5 4 10 -3 6 -11 10 -16 10 -6 0
-7 -4 -4 -10z"/>
<path d="M1420 760 c-13 -8 -12 -10 3 -10 9 0 17 5 17 10 0 12 -1 12 -20 0z"/>
<path d="M1298 743 c7 -3 16 -2 19 1 4 3 -2 6 -13 5 -11 0 -14 -3 -6 -6z"/>
<path d="M1360 740 c0 -5 5 -10 10 -10 6 0 10 5 10 10 0 6 -4 10 -10 10 -5 0
-10 -4 -10 -10z"/>
<path d="M1630 1126 c0 -62 5 -66 81 -66 l69 0 0 50 0 50 -75 0 -75 0 0 -34z
m130 -16 c0 -30 -1 -30 -55 -30 -30 0 -55 3 -55 8 0 4 -3 17 -6 30 -6 21 -4
22 55 22 l61 0 0 -30z"/>
</g>
</svg>
